<mxfile host="localhost" modified="2020-05-15T08:03:50.670Z" agent="5.0 (Macintosh; Intel Mac OS X 10_15_4) AppleWebKit/537.36 (KHTML, like Gecko) Code/1.44.2 Chrome/78.0.3904.130 Electron/7.1.11 Safari/537.36" etag="-r2m9cW2Cy38DhYvk6eF" version="13.0.9">
    <diagram id="WqWKsYILANvG-bSyVEOi" name="Page-1">
        <mxGraphModel dx="1027" dy="1050" grid="1" gridSize="10" guides="1" tooltips="1" connect="1" arrows="1" fold="1" page="0" pageScale="1" pageWidth="1169" pageHeight="827" background="#67AB9F" math="0" shadow="0">
            <root>
                <object label="" id="0">
                    <mxCell/>
                </object>
                <mxCell id="1" parent="0"/>
                <mxCell id="6" value="" style="edgeStyle=orthogonalEdgeStyle;rounded=0;orthogonalLoop=1;jettySize=auto;html=1;" parent="1" source="3" target="5" edge="1">
                    <mxGeometry relative="1" as="geometry"/>
                </mxCell>
                <mxCell id="3" value="&lt;font style=&quot;font-size: 16px&quot;&gt;&lt;b&gt;Demo&lt;/b&gt;&lt;/font&gt;" style="rounded=1;whiteSpace=wrap;html=1;fillColor=#fa6800;strokeColor=#C73500;fontColor=#ffffff;" parent="1" vertex="1">
                    <mxGeometry x="60" y="-140" width="120" height="50" as="geometry"/>
                </mxCell>
                <mxCell id="12" style="edgeStyle=orthogonalEdgeStyle;rounded=0;orthogonalLoop=1;jettySize=auto;html=1;" parent="1" source="5" edge="1">
                    <mxGeometry relative="1" as="geometry">
                        <mxPoint x="-5" y="30" as="targetPoint"/>
                    </mxGeometry>
                </mxCell>
                <mxCell id="5" value="&lt;font style=&quot;font-size: 14px&quot;&gt;Bookstore&lt;/font&gt;" style="rounded=1;whiteSpace=wrap;html=1;fillColor=#6d8764;strokeColor=#3A5431;fontColor=#ffffff;" parent="1" vertex="1">
                    <mxGeometry x="-60" y="-30" width="110" height="30" as="geometry"/>
                </mxCell>
                <mxCell id="9" value="&lt;ol style=&quot;font-size: 13px ; line-height: 160%&quot;&gt;&lt;li&gt;管理员录入新图书&lt;/li&gt;&lt;li&gt;展示书店图书列表&lt;/li&gt;&lt;li&gt;将图书加入到购物车&lt;/li&gt;&lt;li&gt;展示购物车的数据信息&lt;/li&gt;&lt;/ol&gt;" style="text;strokeColor=#3A5431;fillColor=#6d8764;html=1;whiteSpace=wrap;verticalAlign=middle;overflow=hidden;fontColor=#ffffff;strokeWidth=1;" parent="1" vertex="1">
                    <mxGeometry x="-100" y="32" width="190" height="108" as="geometry"/>
                </mxCell>
            </root>
        </mxGraphModel>
    </diagram>
</mxfile>